PathFileType	4	(X/Y/Z)	C:/Users/opensim2020/Desktop/walking_exp_matlab/subject06_walking19_straight_01.trc																																																																																																																																																	
DataRate	CameraRate	NumFrames	NumMarkers	Units	OrigDataRate	OrigDataStartFrame	OrigNumFrames																																																																																																																																													
100	100	4	49	mm	100	1038	472																																																																																																																																													
Frame#	Time	LFHD			RFHD			LBHD			RBHD			C7			T10			CLAV			STRN			RBAK			LSHO			LUPA			LELB			LFRM			LWRA			LWRB			LFIN			RSHO			RUPA			RELB			RFRM			RWRA			RWRB			RFIN			LASI			RASI			LPSI			RPSI			LTHI			LKNE			LTIB			LANK			LHEE			LTOE			RTHI			RKNE			RTIB			RANK			RHEE			RTOE			*39			*40			*41			*42			*43			*44			*45			*46			*47			*48		
		X1	Y1	Z1	X2	Y2	Z2	X3	Y3	Z3	X4	Y4	Z4	X5	Y5	Z5	X6	Y6	Z6	X7	Y7	Z7	X8	Y8	Z8	X9	Y9	Z9	X10	Y10	Z10	X11	Y11	Z11	X12	Y12	Z12	X13	Y13	Z13	X14	Y14	Z14	X15	Y15	Z15	X16	Y16	Z16	X17	Y17	Z17	X18	Y18	Z18	X19	Y19	Z19	X20	Y20	Z20	X21	Y21	Z21	X22	Y22	Z22	X23	Y23	Z23	X24	Y24	Z24	X25	Y25	Z25	X26	Y26	Z26	X27	Y27	Z27	X28	Y28	Z28	X29	Y29	Z29	X30	Y30	Z30	X31	Y31	Z31	X32	Y32	Z32	X33	Y33	Z33	X34	Y34	Z34	X35	Y35	Z35	X36	Y36	Z36	X37	Y37	Z37	X38	Y38	Z38	X39	Y39	Z39	X40	Y40	Z40	X41	Y41	Z41	X42	Y42	Z42	X43	Y43	Z43	X44	Y44	Z44	X45	Y45	Z45	X46	Y46	Z46	X47	Y47	Z47	X48	Y48	Z48	X49	Y49	Z49
																																																																																																																																																				
178	1.77	-327.71613	1669.04468	1328.9751	-334.48358	1658.21265	1460.10535	-456.21802	1604.70544	1321.35339	-461.72388	1599.13672	1450.81116	-453.24374	1455.8595	1375.72791	-496.38354	1128.85522	1385.07751	-346.79984	1375.50708	1387.6908	-312.86398	1198.03931	1385.15955	-536.59399	1288.38049	1449.55933	-381.61569	1407.82642	1221.85022	-350.78101	1207.68127	1149.276	-329.19116	1096.42102	1137.19226	-254.45378	964.20392	1131.73706	-172.0788	877.96826	1196.17529	-215.03896	852.50427	1145.96838	-149.20934	792.11084	1161.32397	-403.4187	1410.29358	1543.42505	-454.82593	1213.76697	1628.40454	-451.5264	1091.53394	1640.27917	-443.02957	971.63354	1659.01025	-390.2677	828.49976	1631.8418	-444.80493	833.83997	1669.35754	-411.91788	756.37189	1674.78503	-320.17462	958.55389	1291.5083	-333.45258	972.23773	1512.5636	-477.99551	995.44006	1310.69836	-483.2565	999.34174	1479.12183	-417.72818	650.74713	1238.03137	-447.05676	488.68552	1260.026	-511.40454	240.30396	1273.7157	-537.82153	70.48296	1321.33398	-580.88031	58.41062	1365.25781	-393.68454	42.09415	1329.328	-333.36673	647.32263	1583.79333	-284.75735	530.63531	1558.90845	-289.77127	269.56674	1556.53589	-267.36789	83.26794	1517.86816	-294.11124	56.18631	1466.08972	-114.50753	58.49944	1542.11963	-433.98578	1699.82983	1382.06335	NaN	NaN	NaN	NaN	NaN	NaN	NaN	NaN	NaN	NaN	NaN	NaN	NaN	NaN	NaN	NaN	NaN	NaN	NaN	NaN	NaN	NaN	NaN	NaN	NaN	NaN	NaN
179	1.78	-322.53934	1668.47034	1330.51233	-329.13818	1657.44714	1461.73743	-451.04294	1604.17908	1322.75964	-456.80649	1598.46521	1452.28748	-448.13907	1455.17529	1376.80078	-490.77765	1128.14612	1385.57727	-341.51422	1374.91968	1388.89844	-307.51016	1197.46375	1386.00024	-531.41864	1287.49292	1450.14307	-376.20889	1407.40967	1222.96118	-345.00845	1207.30933	1150.47668	-323.27417	1096.03589	1138.51282	-247.66283	964.01233	1133.54736	-164.82259	878.93066	1198.37537	-207.60176	852.78406	1148.46899	-141.41583	792.91486	1164.12695	-398.50751	1409.36975	1544.48938	-450.35312	1212.81934	1629.0531	-447.06607	1090.56226	1640.96973	-439.18307	970.64307	1659.65479	-386.49332	827.36475	1632.75073	-441.18381	832.83136	1670.00525	-408.55835	755.36066	1675.65112	-314.96799	957.87415	1291.6925	-327.84088	971.38342	1512.81519	-472.64951	994.77441	1311.09448	-477.91919	998.70087	1479.68237	-413.53311	650.21606	1238.42273	-443.68402	488.2605	1260.38391	-509.79294	240.24652	1273.86011	-537.5451	70.61125	1321.4751	-580.79474	58.61968	1365.40234	-393.69449	41.9913	1329.34448	-327.99414	646.45026	1584.34375	-280.07138	529.6626	1559.1814	-278.45877	268.64639	1557.64099	-250.97147	82.85179	1519.39746	-276.79907	54.91393	1467.81689	-96.83884	61.10999	1542.8042	-428.79892	1699.24097	1383.64587	NaN	NaN	NaN	NaN	NaN	NaN	NaN	NaN	NaN	NaN	NaN	NaN	NaN	NaN	NaN	NaN	NaN	NaN	NaN	NaN	NaN	NaN	NaN	NaN	NaN	NaN	NaN
180	1.79	-317.5918	1667.71741	1332.14441	-323.88681	1656.61206	1463.33459	-445.73987	1603.60815	1324.19714	-451.55936	1597.68262	1453.75012	-442.63599	1454.41089	1377.81287	-485.2821	1127.40747	1386.28748	-336.23065	1374.2616	1390.03296	-302.08792	1196.78735	1386.80981	-526.07245	1286.5282	1450.79419	-370.69144	1406.95935	1224.09558	-339.27826	1206.94507	1151.6394	-317.40863	1095.53174	1139.84509	-241.0421	964.20648	1135.40588	-157.27032	879.95374	1200.55212	-200.47926	853.07861	1150.95105	-133.91081	793.58551	1166.93481	-393.51041	1408.4115	1545.64038	-445.79953	1211.78491	1629.78662	-442.81287	1089.55579	1641.66431	-435.07346	969.61591	1660.37134	-382.61462	826.17456	1633.69519	-437.42188	831.80573	1670.74744	-404.9675	754.18109	1676.45227	-309.68649	957.13257	1291.87439	-322.20578	970.27704	1512.76367	-467.38062	994.17609	1311.66565	-471.87534	997.90973	1480.07776	-409.2428	649.64343	1238.79932	-440.1669	487.76138	1260.77881	-508.15765	240.15521	1274.22168	-537.29401	70.78001	1321.63525	-580.86267	59.10365	1365.68408	-393.57797	41.90574	1329.41968	-322.388	645.51501	1585.0033	-275.24307	528.50122	1559.46619	-267.64206	267.7919	1558.70764	-235.31082	82.6759	1520.97949	-260.53699	54.02019	1469.58484	-80.02924	64.47141	1543.22998	-423.52805	1698.54138	1385.29089	NaN	NaN	NaN	NaN	NaN	NaN	NaN	NaN	NaN	NaN	NaN	NaN	NaN	NaN	NaN	NaN	NaN	NaN	NaN	NaN	NaN	NaN	NaN	NaN	NaN	NaN	NaN
181	1.8	-311.94797	1667.18384	1333.81543	-318.79199	1655.75012	1464.86646	-440.48047	1603.01624	1325.77954	-446.3107	1596.87219	1455.26697	-437.61545	1453.6449	1379.104	-479.6387	1126.59058	1387.1228	-330.91556	1373.52063	1391.21851	-296.51498	1196.11597	1387.69153	-520.69971	1285.53113	1451.54956	-365.21487	1406.45593	1225.34387	-333.58548	1206.43823	1152.90051	-311.72784	1095.0614	1141.27136	-234.6386	963.89441	1137.34314	-150.19077	880.62592	1202.78528	-193.37215	853.25104	1153.45911	-126.42718	794.15521	1169.75439	-388.43314	1407.38391	1546.85754	-441.15155	1210.71545	1630.56506	-438.22128	1088.51636	1642.51306	-430.8414	968.56573	1661.19165	-378.59592	825.01111	1634.71777	-433.54669	830.8009	1671.64355	-401.31833	753.11841	1677.41772	-304.37924	956.36084	1292.09509	-315.97159	969.38391	1513.13086	-461.92957	993.51257	1312.37854	-465.92856	997.09204	1480.77136	-405.03018	649.04108	1239.16797	-436.70563	487.29813	1261.29895	-506.56754	240.04849	1274.36304	-537.06195	70.95162	1321.73474	-580.7525	59.37429	1365.82263	-393.4881	41.79672	1329.56177	-317.005	644.52576	1585.34009	-270.08295	527.35815	1559.44519	-257.30203	267.03052	1559.71497	-220.27391	82.60517	1522.43823	-244.94073	52.96519	1471.35193	-64.08712	68.19004	1543.41895	-418.19757	1697.81763	1386.98474	NaN	NaN	NaN	NaN	NaN	NaN	NaN	NaN	NaN	NaN	NaN	NaN	NaN	NaN	NaN	NaN	NaN	NaN	NaN	NaN	NaN	NaN	NaN	NaN	NaN	NaN	NaN
